<?xml version="1.0" encoding="utf-8"?>
<!-- Generator: Adobe Illustrator 26.0.3, SVG Export Plug-In . SVG Version: 6.00 Build 0)  -->
<svg version="1.1" id="Шар_1" xmlns:svgjs="http://svgjs.com/svgjs"
	 xmlns="http://www.w3.org/2000/svg" xmlns:xlink="http://www.w3.org/1999/xlink" x="0px" y="0px" viewBox="0 0 512 512"
	 style="enable-background:new 0 0 512 512;" xml:space="preserve">
<style type="text/css">
	.st0{fill:url(#SVGID_1_);}
	.st1{fill:url(#SVGID_00000146460519523322341950000015647472657947489692_);}
	.st2{fill:url(#SVGID_00000067229596856760788540000009103740654674813369_);}
	.st3{fill:url(#SVGID_00000123423905116480791000000015057317960990501798_);}
</style>
<g>
	<g id="_05-couldy">
		
			<linearGradient id="SVGID_1_" gradientUnits="userSpaceOnUse" x1="57.1858" y1="744.7516" x2="174.73" y2="627.2075" gradientTransform="matrix(1 0 0 1 0 -566)">
			<stop  offset="0.1441" style="stop-color:#000000"/>
			<stop  offset="1" style="stop-color:#313131"/>
		</linearGradient>
		<path class="st0" d="M162.6,68.1C156,40.1,128,22.8,100,29.4C80.5,34,65.3,49.5,61.1,69.1c-28.1,6-46,33.6-40,61.7
			c5.1,24,26.3,41.2,50.9,41.2h88c28.7,0,52-23.3,52-52C212,92.3,190.3,69.5,162.6,68.1z"/>
		
			<linearGradient id="SVGID_00000057123491750443508430000007945531380912129941_" gradientUnits="userSpaceOnUse" x1="103.9625" y1="1035.0375" x2="404.0375" y2="734.9625" gradientTransform="matrix(1 0 0 1 0 -566)">
			<stop  offset="0.2413" style="stop-color:#313131"/>
			<stop  offset="1" style="stop-color:#838383"/>
		</linearGradient>
		<path style="fill:url(#SVGID_00000057123491750443508430000007945531380912129941_);" d="M390,203c-1.3,0-2.7,0-4.1,0.1
			C383.9,132.1,325.5,75,254,75s-129.9,57.1-131.9,128.1c-1.4,0-2.7-0.1-4.1-0.1C53.9,203,2,254.9,2,319s51.9,116,116,116h272
			c64.1,0,116-51.9,116-116S454.1,203,390,203L390,203z"/>
		
			<linearGradient id="SVGID_00000044863165889778510020000016882154728194266763_" gradientUnits="userSpaceOnUse" x1="353.1751" y1="816.841" x2="470.7637" y2="699.2525" gradientTransform="matrix(1 0 0 1 0 -566)">
			<stop  offset="0.1441" style="stop-color:#000000"/>
			<stop  offset="1" style="stop-color:#313131"/>
		</linearGradient>
		<path style="fill:url(#SVGID_00000044863165889778510020000016882154728194266763_);" d="M458.6,140.1
			c-6.6-28-34.6-45.3-62.6-38.7c-19.6,4.6-34.7,20.1-38.9,39.8c-28.1,6-46,33.6-40,61.7c5.1,24,26.3,41.2,50.9,41.2h88
			c28.7,0,52-23.3,52-52C508,164.3,486.3,141.5,458.6,140.1L458.6,140.1z"/>
		
			<linearGradient id="SVGID_00000116916309106894176980000010440644332793626271_" gradientUnits="userSpaceOnUse" x1="177.1752" y1="1048.8411" x2="294.7637" y2="931.2524" gradientTransform="matrix(1 0 0 1 0 -566)">
			<stop  offset="0.1441" style="stop-color:#000000"/>
			<stop  offset="1" style="stop-color:#313131"/>
		</linearGradient>
		<path style="fill:url(#SVGID_00000116916309106894176980000010440644332793626271_);" d="M282.6,372.1
			c-6.6-28-34.6-45.3-62.6-38.7c-19.6,4.6-34.7,20.1-38.9,39.8c-28.1,6-46,33.6-40,61.7c5.1,24,26.3,41.2,50.9,41.2h88
			c28.7,0,52-23.3,52-52C332,396.3,310.3,373.5,282.6,372.1z"/>
	</g>
</g>
</svg>
