<?xml version="1.0" encoding="utf-8"?>
<!-- Generator: Adobe Illustrator 26.0.3, SVG Export Plug-In . SVG Version: 6.00 Build 0)  -->
<svg version="1.1" id="Шар_1" xmlns:svgjs="http://svgjs.com/svgjs"
	 xmlns="http://www.w3.org/2000/svg" xmlns:xlink="http://www.w3.org/1999/xlink" x="0px" y="0px" viewBox="0 0 512 512"
	 style="enable-background:new 0 0 512 512;" xml:space="preserve">
<style type="text/css">
	.st0{fill:url(#SVGID_1_);}
	.st1{fill:#FCE6AA;}
</style>
<g id="gradient_blend">
	
		<linearGradient id="SVGID_1_" gradientUnits="userSpaceOnUse" x1="134.3776" y1="136.3776" x2="377.6224" y2="379.6224" gradientTransform="matrix(1 0 0 -1 0 514)">
		<stop  offset="1.500000e-02" style="stop-color:#F9CD55"/>
		<stop  offset="1" style="stop-color:#FDBC8C"/>
	</linearGradient>
	<circle class="st0" cx="256" cy="256" r="172"/>
	<path class="st1" d="M368.7,84.7c-11.5,8.7-24.3-2.1-19.8-13.7c0-0.1,0-0.1,0.1-0.2l13.1-22.7c4.7-8.2,17.6-8.8,22.4,2.7
		c0.4,3.7-0.2,6.8-1.7,9.3L368.7,84.7C368.8,84.7,368.8,84.7,368.7,84.7z"/>
	<path class="st1" d="M441.8,165.5c-14.3,1.8-20-14-10.3-21.7c0,0,0.1-0.1,0.1-0.1l22.7-13.1c8.2-4.8,19.6,1.2,18.1,13.6
		c-1.5,3.4-3.5,5.8-6.1,7.2L442,165.4C441.9,165.4,441.9,165.4,441.8,165.5z"/>
	<path class="st1" d="M148.2,466.6c-11.5,8.7-24.4-2.2-19.7-13.7c0,0,0,0,0,0c0.1-0.2,13.1-22.7,13.1-22.7
		c3.4-5.7,10.7-7.6,16.4-4.3c5.7,3.3,7.6,10.6,4.4,16.3C162.4,442.1,149,465.3,148.2,466.6C148.3,466.6,148.3,466.6,148.2,466.6z"/>
	<path class="st1" d="M62.4,392c-14.3,1.8-20-14.1-10.2-21.8c0,0,0,0,0,0C52.4,370,74.9,357,74.9,357c5.8-3.3,13.1-1.3,16.4,4.5
		c3.2,5.7,1.3,13-4.4,16.3c0,0-23.2,13.4-24.4,14.1C62.5,391.9,62.5,392,62.4,392z"/>
	<g>
		<path class="st1" d="M244,53.8C244,53.8,244,53.8,244,53.8l0-36.5c0,0,0,0,0,0c10.6-12,24-4.7,24,5.8v25
			C268,58.5,254.6,65.8,244,53.8z"/>
		<path class="st1" d="M145.1,87.9l-16-27.7c-3.3-5.8-1.3-13.1,4.5-16.4c5.7-3.2,13-1.3,16.3,4.4l14.4,24.9c0,0,0,0,0,0.1
			c0.5,9.2-5.7,14.6-12.3,14.7H145.1z"/>
		<path class="st1" d="M75.9,164c-2.1,0-4.2-0.6-6-1.6l-21.7-12.5c-5.8-3.3-7.8-10.6-4.5-16.4c3.3-5.8,10.6-7.8,16.4-4.5
			c0,0,0.1,0.1,0.1,0.1l21.7,12.5c5.7,3.3,7.7,10.7,4.4,16.4C84.1,161.7,80.1,164,75.9,164z"/>
		<path class="st1" d="M48,268H17.2c0,0,0,0,0,0c-12-10.6-4.7-24,5.8-24h30.8c0,0,0,0,0,0C65.8,254.6,58.5,268,48,268z"/>
		<path class="st1" d="M244,494.8C244,494.8,244,494.8,244,494.8c0-0.4,0-36.1,0-36.5c0,0,0,0,0,0c10.6-12,24-4.7,24,5.8v25
			C268,499.5,254.6,506.8,244,494.8z"/>
		<path class="st1" d="M365.6,469.8l-16-27.7c-4.8-8.1,1.1-19.5,13.3-18.1c0,0,0,0,0,0c3.5,1.4,6,3.5,7.4,6.1l14.4,24.9
			c0,0,0,0,0,0.1c0.5,9.2-5.7,14.6-12.3,14.7H365.6z"/>
		<path class="st1" d="M457.8,384.5c-2.1,0-4.2-0.6-6-1.6l-21.7-12.5c-5.7-3.4-7.6-10.7-4.3-16.4c3.3-5.7,10.6-7.6,16.3-4.4
			l21.7,12.5c5.7,3.3,7.7,10.7,4.4,16.4C466,382.2,462.1,384.5,457.8,384.5L457.8,384.5z"/>
		<path class="st1" d="M489,268h-30.8c0,0,0,0,0,0c-12-10.6-4.7-24,5.8-24h30.8c0,0,0,0,0,0C506.8,254.6,499.5,268,489,268z"/>
	</g>
</g>
</svg>
