<svg xmlns="http://www.w3.org/2000/svg" version="1.1" xmlns:xlink="http://www.w3.org/1999/xlink" xmlns:svgjs="http://svgjs.com/svgjs" width="512" height="512" x="0" y="0" viewBox="0 0 512 512" style="enable-background:new 0 0 512 512" xml:space="preserve" class=""><g><linearGradient xmlns="http://www.w3.org/2000/svg" id="New_Gradient_Swatch_31" gradientUnits="userSpaceOnUse" x1="353.247" x2="470.751" y1="170.752" y2="53.248"><stop offset=".015" stop-color="#8c84bc"></stop><stop offset="1" stop-color="#dbdfec"></stop></linearGradient><linearGradient xmlns="http://www.w3.org/2000/svg" id="New_Gradient_Swatch_31-2" x1="41.247" x2="158.751" xmlns:xlink="http://www.w3.org/1999/xlink" xlink:href="#New_Gradient_Swatch_31" y1="170.752" y2="53.248"></linearGradient><linearGradient xmlns="http://www.w3.org/2000/svg" id="New_Gradient_Swatch_27" gradientUnits="userSpaceOnUse" x1="197.389" x2="312.089" y1="325.189" y2="210.489"><stop offset=".015" stop-color="#c9e4dd"></stop><stop offset="1" stop-color="#e4f2ee"></stop></linearGradient><g xmlns="http://www.w3.org/2000/svg" id="_12-rain" data-name="12-rain"><path d="m458.618 60.065a52.007 52.007 0 0 0 -101.477 1.076 52 52 0 0 0 10.859 102.859h88a52 52 0 0 0 2.618-103.935z" fill="url(#New_Gradient_Swatch_31)" data-original="url(#New_Gradient_Swatch_31)"></path><path d="m146.618 60.065a52.007 52.007 0 0 0 -101.477 1.076 52 52 0 0 0 10.859 102.859h88a52 52 0 0 0 2.618-103.935z" fill="url(#New_Gradient_Swatch_31-2)" data-original="url(#New_Gradient_Swatch_31-2)"></path><path d="m296.418 202.261c-16.206-22.114-32.171-39.54-32.843-40.271a12 12 0 0 0 -17.672 0c-.672.731-16.636 18.157-32.842 40.271-23.095 31.511-34.322 55.341-34.322 72.848a76 76 0 1 0 152 0c0-17.509-11.226-41.337-34.321-72.848z" fill="url(#New_Gradient_Swatch_27)" data-original="url(#New_Gradient_Swatch_27)"></path><g fill="#fce6aa"><path d="m448 212a12 12 0 0 1 -12-12v-8a12 12 0 0 1 24 0v8a12 12 0 0 1 -12 12z" fill="#fce6aa" data-original="#fce6aa"></path><path d="m448 276a12 12 0 0 1 -12-12v-8a12 12 0 0 1 24 0v8a12 12 0 0 1 -12 12z" fill="#fce6aa" data-original="#fce6aa"></path><path d="m384 212a12 12 0 0 1 -12-12v-8a12 12 0 0 1 24 0v8a12 12 0 0 1 -12 12z" fill="#fce6aa" data-original="#fce6aa"></path><path d="m384 276a12 12 0 0 1 -12-12v-8a12 12 0 0 1 24 0v8a12 12 0 0 1 -12 12z" fill="#fce6aa" data-original="#fce6aa"></path><path d="m448 340a12 12 0 0 1 -12-12v-8a12 12 0 0 1 24 0v8a12 12 0 0 1 -12 12z" fill="#fce6aa" data-original="#fce6aa"></path><path d="m448 404a12 12 0 0 1 -12-12v-8a12 12 0 0 1 24 0v8a12 12 0 0 1 -12 12z" fill="#fce6aa" data-original="#fce6aa"></path><path d="m384 340a12 12 0 0 1 -12-12v-8a12 12 0 0 1 24 0v8a12 12 0 0 1 -12 12z" fill="#fce6aa" data-original="#fce6aa"></path><path d="m384 404a12 12 0 0 1 -12-12v-8a12 12 0 0 1 24 0v8a12 12 0 0 1 -12 12z" fill="#fce6aa" data-original="#fce6aa"></path><path d="m64 340a12 12 0 0 1 -12-12v-8a12 12 0 0 1 24 0v8a12 12 0 0 1 -12 12z" fill="#fce6aa" data-original="#fce6aa"></path><path d="m64 404a12 12 0 0 1 -12-12v-8a12 12 0 0 1 24 0v8a12 12 0 0 1 -12 12z" fill="#fce6aa" data-original="#fce6aa"></path><path d="m128 340a12 12 0 0 1 -12-12v-8a12 12 0 0 1 24 0v8a12 12 0 0 1 -12 12z" fill="#fce6aa" data-original="#fce6aa"></path><path d="m128 404a12 12 0 0 1 -12-12v-8a12 12 0 0 1 24 0v8a12 12 0 0 1 -12 12z" fill="#fce6aa" data-original="#fce6aa"></path><path d="m64 212a12 12 0 0 1 -12-12v-8a12 12 0 0 1 24 0v8a12 12 0 0 1 -12 12z" fill="#fce6aa" data-original="#fce6aa"></path><path d="m64 276a12 12 0 0 1 -12-12v-8a12 12 0 0 1 24 0v8a12 12 0 0 1 -12 12z" fill="#fce6aa" data-original="#fce6aa"></path><path d="m128 212a12 12 0 0 1 -12-12v-8a12 12 0 0 1 24 0v8a12 12 0 0 1 -12 12z" fill="#fce6aa" data-original="#fce6aa"></path><path d="m128 276a12 12 0 0 1 -12-12v-8a12 12 0 0 1 24 0v8a12 12 0 0 1 -12 12z" fill="#fce6aa" data-original="#fce6aa"></path></g></g></g></svg>