<?xml version="1.0" encoding="utf-8"?>
<!-- Generator: Adobe Illustrator 26.0.3, SVG Export Plug-In . SVG Version: 6.00 Build 0)  -->
<svg version="1.1" id="Шар_1" xmlns:svgjs="http://svgjs.com/svgjs"
	 xmlns="http://www.w3.org/2000/svg" xmlns:xlink="http://www.w3.org/1999/xlink" x="0px" y="0px" viewBox="0 0 512 512"
	 style="enable-background:new 0 0 512 512;" xml:space="preserve">
<style type="text/css">
	.st0{fill:#D6D6D6;}
	.st1{fill:#E2E2E2;}
	.st2{fill:#C9C9C9;}
	.st3{fill:url(#SVGID_1_);}
	.st4{fill:url(#SVGID_00000114031647027498185850000017406212411281030295_);}
</style>
<g>
	<g id="_07-windy_couldy">
		<g id="gradient">
			<g>
				<path class="st0" d="M424,172H280c-6.6,0-12-5.4-12-12s5.4-12,12-12h144c11,0,20-9,20-20c0-11-9-20-20-20
					c-5.7,0-11.2,2.5-15,6.8c-4.4,5-12,5.4-16.9,1.1c-5-4.4-5.4-12-1.1-16.9c16.1-18.2,43.9-20,62.1-3.9c18.2,16.1,20,43.9,3.9,62.1
					C448.6,166.6,436.6,172,424,172z"/>
				<path class="st0" d="M464,348c-12.6,0-24.6-5.4-33-14.9c-4.4-5-3.9-12.6,1.1-16.9s12.6-3.9,16.9,1.1c7.3,8.3,19.9,9.1,28.2,1.8
					c8.3-7.3,9.1-19.9,1.8-28.2c-3.8-4.3-9.3-6.8-15-6.8H320c-6.6,0-12-5.4-12-12s5.4-12,12-12h144c24.3,0,44,19.7,44,44
					S488.3,348,464,348L464,348z"/>
				<path class="st0" d="M48,412c-24.3,0-44-19.7-44-44s19.7-44,44-44h144c6.6,0,12,5.4,12,12s-5.4,12-12,12H48c-11,0-20,9-20,20
					c0,11,9,20,20,20c5.7,0,11.2-2.5,15-6.8c4.4-5,12-5.4,16.9-1.1s5.4,12,1.1,16.9C72.6,406.6,60.6,412,48,412L48,412z"/>
			</g>
			<path class="st1" d="M456,228H272c-6.6,0-12-5.4-12-12s5.4-12,12-12h184c6.6,0,12,5.4,12,12S462.6,228,456,228z"/>
			<path class="st2" d="M224,228h-16c-6.6,0-12-5.4-12-12s5.4-12,12-12h16c6.6,0,12,5.4,12,12S230.6,228,224,228z"/>
			<path class="st1" d="M328,348h-88c-6.6,0-12-5.4-12-12s5.4-12,12-12h88c6.6,0,12,5.4,12,12S334.6,348,328,348z"/>
			<path class="st1" d="M168,284H64c-6.6,0-12-5.4-12-12s5.4-12,12-12h104c6.6,0,12,5.4,12,12S174.6,284,168,284z"/>
			<path class="st2" d="M272,284h-56c-6.6,0-12-5.4-12-12s5.4-12,12-12h56c6.6,0,12,5.4,12,12S278.6,284,272,284z"/>
			
				<linearGradient id="SVGID_1_" gradientUnits="userSpaceOnUse" x1="73.2127" y1="335.221" x2="190.7755" y2="452.7827" gradientTransform="matrix(1 0 0 -1 0 514)">
				<stop  offset="0" style="stop-color:#939393"/>
				<stop  offset="1" style="stop-color:#E2E2E2"/>
			</linearGradient>
			<path class="st3" d="M178.6,68.1c-6.6-28-34.6-45.3-62.6-38.7C96.5,34,81.3,49.5,77.1,69.1c-28.1,6-46,33.6-40,61.7
				c5.1,24,26.3,41.2,50.9,41.2h88c28.7,0,52-23.3,52-52C228,92.3,206.3,69.5,178.6,68.1z"/>
			
				<linearGradient id="SVGID_00000008859031020127712050000018368797829732274052_" gradientUnits="userSpaceOnUse" x1="322.0657" y1="0.1619" x2="439.6285" y2="117.7237" gradientTransform="matrix(1 0 0 -1 0 514)">
				<stop  offset="0" style="stop-color:#939393"/>
				<stop  offset="1" style="stop-color:#E2E2E2"/>
			</linearGradient>
			<path style="fill:url(#SVGID_00000008859031020127712050000018368797829732274052_);" d="M427.5,403.1
				c-6.6-28-34.6-45.3-62.6-38.7c-19.6,4.6-34.7,20.1-38.9,39.8c-28.1,6-46,33.6-40,61.7c5.1,24,26.3,41.2,50.9,41.2h88
				c28.7,0,52-23.3,52-52C476.9,427.4,455.2,404.5,427.5,403.1L427.5,403.1z"/>
		</g>
	</g>
</g>
</svg>
