<svg xmlns="http://www.w3.org/2000/svg" xmlns:xlink="http://www.w3.org/1999/xlink" id="body_1" width="20" height="20">

    <g transform="matrix(0.0390625 0 0 0.0390625 0 0)">
        <g>
            <g>
                <g>
                    <g>
                        <path d="M256 512C 146.834 512 58.020996 423.00702 58.020996 313.61902C 58.020996 268.08102 73.773994 223.68402 102.40399 188.44202C 102.592995 188.13602 102.800995 187.83801 103.02599 187.55002L103.02599 187.55002L245.545 5.412C 248.237 1.971 252.284 0 256.651 0C 256.662 0 256.672 0 256.683 0C 261.06302 0.01 265.11502 2.001 267.79703 5.463L267.79703 5.463L328.20203 83.409996C 331.58502 87.77599 330.78903 94.057 326.42303 97.439995C 322.05704 100.82199 315.77704 100.02599 312.39404 95.660995L312.39404 95.660995L256.62805 23.700996L119.62805 198.788C 119.36405 199.236 119.06405 199.666 118.72705 200.075C 92.47705 231.916 78.02105 272.241 78.02105 313.619C 78.021 411.979 157.862 492 256 492C 354.138 492 433.979 411.979 433.979 313.61902C 433.979 272.68103 419.789 232.68602 394.022 201.00403C 393.876 200.82603 393.739 200.64403 393.608 200.45802L393.608 200.45802L361.418 158.91902C 358.035 154.55402 358.831 148.27202 363.197 144.88902C 367.559 141.50603 373.843 142.30202 377.22598 146.66803L377.22598 146.66803L409.697 188.56802C 409.742 188.62703 409.787 188.68503 409.831 188.74402C 438.304 223.92401 453.979 268.252 453.979 313.618C 453.979 423.007 365.166 512 256 512z"
                              stroke="none" fill="#000000" fill-rule="nonzero"/>
                    </g>
                    <g>
                        <g>
                            <path d="M204.99 394.002C 203.29901 394.002 201.585 393.57202 200.013 392.668C 195.226 389.914 193.577 383.801 196.331 379.014L196.331 379.014L294.331 208.647C 297.08398 203.85901 303.197 202.211 307.985 204.965C 312.77197 207.719 314.421 213.832 311.667 218.62L311.667 218.62L213.66699 388.987C 211.818 392.202 208.452 394.002 204.99 394.002z"
                                  stroke="none" fill="#000000" fill-rule="nonzero"/>
                        </g>
                        <g>
                            <path d="M316.558 394C 295.342 394 278.08102 376.739 278.08102 355.522C 278.08102 334.305 295.342 317.044 316.558 317.044C 337.77502 317.044 355.036 334.305 355.036 355.522C 355.036 376.739 337.774 394 316.558 394zM316.558 337.045C 306.37003 337.045 298.08102 345.334 298.08102 355.523C 298.08102 365.712 306.369 374 316.558 374C 326.74704 374 335.036 365.711 335.036 355.522C 335.036 345.333 326.746 337.045 316.558 337.045z"
                                  stroke="none" fill="#000000" fill-rule="nonzero"/>
                        </g>
                        <g>
                            <path d="M195.442 272.948C 174.225 272.948 156.964 255.687 156.964 234.471C 156.964 213.254 174.225 195.993 195.442 195.993C 216.658 195.993 233.919 213.254 233.919 234.471C 233.919 255.688 216.658 272.948 195.442 272.948zM195.442 215.994C 185.254 215.994 176.964 224.283 176.964 234.472C 176.964 244.661 185.253 252.949 195.442 252.949C 205.631 252.949 213.919 244.66 213.919 234.472C 213.919 224.284 205.631 215.994 195.442 215.994z"
                                  stroke="none" fill="#000000" fill-rule="nonzero"/>
                        </g>
                    </g>
                    <g>
                        <path d="M345.04 131C 342.39902 131 339.819 129.93 337.96002 128.07C 336.10004 126.21001 335.04 123.630005 335.04 121.00001C 335.04 118.37001 336.1 115.79001 337.96002 113.93001C 339.81903 112.07001 342.39902 111.00001 345.04 111.00001C 347.67 111.00001 350.24002 112.07001 352.109 113.93001C 353.969 115.79001 355.04 118.37001 355.04 121.00001C 355.04 123.630005 353.97 126.21001 352.109 128.07C 350.24 129.93 347.67 131 345.04 131z"
                              stroke="none" fill="#000000" fill-rule="nonzero"/>
                    </g>
                </g>
            </g>
        </g>
    </g>
</svg>