<?xml version="1.0" encoding="utf-8"?>
<!-- Generator: Adobe Illustrator 26.0.3, SVG Export Plug-In . SVG Version: 6.00 Build 0)  -->
<svg version="1.1" id="Шар_1" xmlns:svgjs="http://svgjs.com/svgjs"
	 xmlns="http://www.w3.org/2000/svg" xmlns:xlink="http://www.w3.org/1999/xlink" x="0px" y="0px" viewBox="0 0 512 512"
	 style="enable-background:new 0 0 512 512;" xml:space="preserve">
<style type="text/css">
	.st0{fill:url(#SVGID_1_);}
	.st1{fill:url(#SVGID_00000070831153488372234490000015340457417358483367_);}
	.st2{fill:url(#SVGID_00000151533763910917849220000002161673231073117852_);}
	.st3{fill:url(#SVGID_00000160896866190054808900000008118261219239779227_);}
	.st4{fill:url(#SVGID_00000041987437276598442400000016524612869216582028_);}
	.st5{fill:url(#SVGID_00000074434315742289368580000008193501347589268872_);}
</style>
<g>
	<g id="_05-couldy">
		
			<linearGradient id="SVGID_1_" gradientUnits="userSpaceOnUse" x1="103.9756" y1="117.9756" x2="404.0244" y2="418.0244" gradientTransform="matrix(1 0 0 -1 0 514)">
			<stop  offset="1.500000e-02" style="stop-color:#B7BFD8"/>
			<stop  offset="1" style="stop-color:#E4F2EE"/>
		</linearGradient>
		<path class="st0" d="M390,130c-1.3,0-2.7,0-4.1,0.1C383.9,59.1,325.5,2,254,2S124.1,59.1,122.1,130.1c-1.4,0-2.7-0.1-4.1-0.1
			C53.9,130,2,181.9,2,246s51.9,116,116,116h272c64.1,0,116-51.9,116-116S454.1,130,390,130L390,130z"/>
	</g>
</g>
<linearGradient id="SVGID_00000014601446419996271860000002597819551352197018_" gradientUnits="userSpaceOnUse" x1="44.1789" y1="430.8211" x2="125.8211" y2="349.1789">
	<stop  offset="1.500000e-02" style="stop-color:#8C84BC"/>
	<stop  offset="1" style="stop-color:#DBDFEC"/>
</linearGradient>
<path style="fill:url(#SVGID_00000014601446419996271860000002597819551352197018_);" d="M150,402.5H20c-5.5,0-10-4.5-10-10v-5
	c0-5.5,4.5-10,10-10h130c5.5,0,10,4.5,10,10v5C160,398,155.5,402.5,150,402.5z"/>
<linearGradient id="SVGID_00000084506307519580827590000009808814260799750553_" gradientUnits="userSpaceOnUse" x1="281.6789" y1="468.3211" x2="438.3211" y2="311.6789">
	<stop  offset="1.500000e-02" style="stop-color:#8C84BC"/>
	<stop  offset="1" style="stop-color:#DBDFEC"/>
</linearGradient>
<path style="fill:url(#SVGID_00000084506307519580827590000009808814260799750553_);" d="M500,402.5H220c-5.5,0-10-4.5-10-10v-5
	c0-5.5,4.5-10,10-10h280c5.5,0,10,4.5,10,10v5C510,398,505.5,402.5,500,402.5z"/>
<linearGradient id="SVGID_00000056427829943232615620000014468451513077227699_" gradientUnits="userSpaceOnUse" x1="119.1789" y1="480.8211" x2="200.8211" y2="399.1789">
	<stop  offset="1.500000e-02" style="stop-color:#8C84BC"/>
	<stop  offset="1" style="stop-color:#DBDFEC"/>
</linearGradient>
<path style="fill:url(#SVGID_00000056427829943232615620000014468451513077227699_);" d="M225,452.5H95c-5.5,0-10-4.5-10-10v-5
	c0-5.5,4.5-10,10-10h130c5.5,0,10,4.5,10,10v5C235,448,230.5,452.5,225,452.5z"/>
<linearGradient id="SVGID_00000178204588316531829700000005121217307724450698_" gradientUnits="userSpaceOnUse" x1="309.1789" y1="480.8211" x2="390.8211" y2="399.1789">
	<stop  offset="1.500000e-02" style="stop-color:#8C84BC"/>
	<stop  offset="1" style="stop-color:#DBDFEC"/>
</linearGradient>
<path style="fill:url(#SVGID_00000178204588316531829700000005121217307724450698_);" d="M415,452.5H285c-5.5,0-10-4.5-10-10v-5
	c0-5.5,4.5-10,10-10h130c5.5,0,10,4.5,10,10v5C425,448,420.5,452.5,415,452.5z"/>
<linearGradient id="SVGID_00000091698881049567804360000005297811471833024689_" gradientUnits="userSpaceOnUse" x1="214.1789" y1="525.821" x2="285.8211" y2="454.1789">
	<stop  offset="1.500000e-02" style="stop-color:#8C84BC"/>
	<stop  offset="1" style="stop-color:#DBDFEC"/>
</linearGradient>
<path style="fill:url(#SVGID_00000091698881049567804360000005297811471833024689_);" d="M305,502.5H195c-5.5,0-10-4.5-10-10v-5
	c0-5.5,4.5-10,10-10h110c5.5,0,10,4.5,10,10v5C315,498,310.5,502.5,305,502.5z"/>
</svg>
