<svg xmlns="http://www.w3.org/2000/svg" xmlns:xlink="http://www.w3.org/1999/xlink" id="body_1" width="20" height="20">

    <g transform="matrix(0.0390625 0 0 0.0390625 0 0)">
        <g>
            <g>
                <path d="M474.87 68.662L472.472 68.662C 463.067 36.183002 432.94598 13.2020035 398.62997 13.2020035C 369.38397 13.2020035 342.91898 29.843004 329.99997 55.476C 270.63696 14.478001 191.05397 24.552002 143.28596 76.337006C 140.47696 79.381004 140.66896 84.12701 143.71396 86.935005C 146.75797 89.744 151.50296 89.55301 154.31195 86.507C 203.41695 33.274002 287.86395 30.484005 340.11795 83.602005C 361.40894 105.246 374.17496 132.985 376.65796 162.815C 379.06897 191.83101 371.74597 220.89801 355.07397 245.485C 352.74997 248.914 353.64398 253.577 357.07297 255.90201C 358.36298 256.777 359.82697 257.195 361.27496 257.195C 363.67798 257.195 366.03998 256.042 367.48996 253.903C 372.05795 247.165 376.04596 240.022 379.39996 232.618L379.39996 232.618L428.10498 232.618C 445.038 232.618 458.85397 246.538 458.37497 263.76498C 457.92398 279.97998 444.07098 293.172 427.49396 293.172L427.49396 293.172L380.74194 293.172C 376.59894 293.172 373.24194 296.53 373.24194 300.672C 373.24194 304.814 376.59894 308.172 380.74194 308.172L380.74194 308.172L427.49396 308.172C 452.11496 308.172 472.69397 288.438 473.36896 264.182C 473.71896 251.599 469.01495 239.772 460.12396 230.88101C 451.57095 222.32802 440.19995 217.61801 428.10495 217.61801L428.10495 217.61801L385.20996 217.61801C 392.70795 194.37001 394.36096 168.32 388.81097 142.90201L388.81097 142.90201L474.86996 142.90201C 484.78497 142.90201 494.10898 139.039 501.12396 132.02501C 508.13797 125.01001 511.99997 115.68701 511.99997 105.77201C 511.99997 85.31001 495.34396 68.66201 474.86996 68.66201L474.86996 68.66201L474.87 68.662zM490.518 121.418C 486.336 125.599 480.78 127.901 474.871 127.901L474.871 127.901L384.663 127.901C 376.718 104.303 362.335 82.226 342.145 64.847C 352.011 42.736 374.10898 28.202 398.63098 28.202C 427.925 28.202 453.41898 49.001 459.25098 77.658005C 459.96198 81.15201 463.03497 83.662 466.60098 83.662L466.60098 83.662L474.87198 83.662C 487.07397 83.662 497.00198 93.58 497.00198 105.772C 496.99997 111.681 494.697 117.23801 490.51797 121.418z"
                      stroke="none" fill="#000000" fill-rule="nonzero"/>
                <path d="M345.74 308.172C 349.883 308.172 353.24 304.814 353.24 300.672C 353.24 296.53 349.883 293.172 345.74 293.172L345.74 293.172L307.986 293.172C 299.094 281.43298 289.538 270.411 280.65698 261.685C 264.012 245.332 258.39697 245.332 255.99998 245.332C 242.22798 245.332 217.16599 274.066 202.81699 293.171L202.81699 293.171L71.54999 293.171C 40.36799 293.171 14.999989 267.80298 14.999989 236.62099C 14.999989 205.44499 40.36799 180.081 71.54999 180.081C 71.54999 180.081 97.48599 180.081 108.23999 180.071C 114.81199 180.071 120.16399 174.926 120.42399 168.358C 121.192986 148.949 126.17499 130.462 135.234 113.41C 137.17699 109.75201 135.788 105.211006 132.12999 103.268005C 128.47299 101.324005 123.93299 102.716 121.98799 106.37301C 112.28299 124.642006 106.76399 144.375 105.56699 165.07301C 93.72399 165.08101 71.549995 165.08101 71.549995 165.08101C 32.096996 165.08101 -7.6293945E-06 197.17401 -7.6293945E-06 236.621C -7.6293945E-06 276.074 32.096992 308.17102 71.549995 308.17102L71.549995 308.17102L192.27798 308.17102C 177.19699 331.066 157.90099 366.95502 157.90099 400.69803C 157.90099 454.79004 201.90799 498.79703 256.00098 498.79703C 310.09396 498.79703 354.10098 454.79004 354.10098 400.69803C 354.09998 367.34503 334.22397 331.26202 318.70297 308.17102L318.70297 308.17102L345.73996 308.17102L345.74 308.172zM256 483.798C 210.179 483.798 172.9 446.52002 172.9 400.699C 172.9 386.138 177.67 354.90802 209.61499 309.339C 229.984 280.28198 249.77199 262.72 255.75198 260.494C 261.684 263.301 281.81497 281.95898 301.81497 310.111C 315.73898 329.712 339.09796 367.544 339.09897 400.698C 339.09998 446.52 301.82098 483.798 255.99997 483.798z"
                      stroke="none" fill="#000000" fill-rule="nonzero"/>
                <path d="M430.115 349.381C 418.49298 349.381 386.361 387.79202 386.361 416.05103C 386.361 440.17703 405.98898 459.80502 430.115 459.80502C 454.241 459.80502 473.869 440.17703 473.869 416.05103C 473.869 388.299 440.93698 349.38104 430.115 349.38104L430.115 349.38104L430.115 349.381zM430.115 444.80502C 414.261 444.80502 401.361 431.90604 401.361 416.05103C 401.361 397.35602 421.969 371.63202 429.913 365.334C 438.115 372.079 458.869 397.961 458.869 416.05103C 458.869 431.90604 445.97 444.80502 430.115 444.80502z"
                      stroke="none" fill="#000000" fill-rule="nonzero"/>
                <path d="M94.904 357.214C 88.287 350.71298 84.914 349.38098 81.884 349.38098C 72.61 349.38098 59.211002 367.163 55.325005 372.61298C 48.903004 381.62097 38.130005 399.24197 38.130005 416.05096C 38.130005 440.17697 57.758003 459.80496 81.884 459.80496C 106.01 459.80496 125.638 440.17697 125.638 416.05096C 125.638 399.41196 114.553 381.66095 107.946 372.55997C 103.809 366.86096 99.177 361.41098 94.904 357.21396L94.904 357.21396L94.904 357.214zM81.885 444.805C 66.031006 444.805 53.131004 431.906 53.131004 416.051C 53.131004 397.356 73.73801 371.632 81.68301 365.33398C 89.88501 372.07898 110.63901 397.96198 110.63901 416.051C 110.63901 431.906 97.739006 444.805 81.88501 444.805z"
                      stroke="none" fill="#000000" fill-rule="nonzero"/>
                <path d="M283.907 408.834C 272.002 408.834 262.315 418.52002 262.315 430.42502C 262.315 442.33002 272.002 452.01602 283.907 452.01602C 295.812 452.01602 305.49802 442.33002 305.49802 430.42502C 305.49802 418.52002 295.81302 408.834 283.907 408.834zM283.907 437.01602C 280.272 437.01602 277.315 434.05902 277.315 430.42502C 277.315 426.79102 280.272 423.834 283.907 423.834C 287.54102 423.834 290.49802 426.79102 290.49802 430.42502C 290.49802 434.05902 287.54102 437.01602 283.907 437.01602z"
                      stroke="none" fill="#000000" fill-rule="nonzero"/>
                <path d="M249.685 370.972C 249.685 359.067 239.998 349.38098 228.093 349.38098C 216.188 349.38098 206.502 359.067 206.502 370.972C 206.502 382.87698 216.188 392.563 228.093 392.563C 239.998 392.563 249.685 382.87698 249.685 370.972zM221.502 370.972C 221.502 367.33798 224.459 364.38098 228.093 364.38098C 231.728 364.38098 234.685 367.33798 234.685 370.972C 234.685 374.606 231.728 377.563 228.093 377.563C 224.459 377.563 221.502 374.606 221.502 370.972z"
                      stroke="none" fill="#000000" fill-rule="nonzero"/>
                <path d="M294.19 362.509C 291.26 359.58002 286.512 359.58002 283.583 362.509L283.583 362.509L217.81 428.282C 214.881 431.211 214.881 435.96002 217.81 438.888C 220.73999 441.817 225.48799 441.817 228.41699 438.888L228.41699 438.888L294.19 373.115C 297.119 370.18698 297.119 365.438 294.19 362.509z"
                      stroke="none" fill="#000000" fill-rule="nonzero"/>
            </g>
        </g>
    </g>
</svg>