<svg xmlns="http://www.w3.org/2000/svg" xmlns:xlink="http://www.w3.org/1999/xlink" id="body_1" width="20" height="20">

    <g transform="matrix(0.0390625 0 0 0.0390625 0 0)">
        <g>
            <g>
                <g>
                    <path d="M256 472C 136.89801 472 40 375.103 40 256C 40 136.897 136.89801 40 256 40C 375.102 40 472 136.89801 472 256C 472 375.102 375.103 472 256 472zM256 60C 147.925 60 60 147.925 60 256C 60 364.075 147.925 452 256 452C 364.075 452 452 364.075 452 256C 452 147.92499 364.075 60 256 60z"
                          stroke="none" fill="#000000" fill-rule="nonzero"/>
                </g>
                <g>
                    <path d="M256.174 293.759C 254.12201 293.759 252.05002 293.59302 249.97101 293.256C 237.856 291.289 227.759 283.86502 222.27 272.88702L222.27 272.88702L185.069 198.48602C 183.144 194.63602 183.899 189.98703 186.942 186.94302C 189.987 183.90002 194.63701 183.14502 198.485 185.07002L198.485 185.07002L272.887 222.27103C 283.865 227.76003 291.288 237.85703 293.255 249.97203C 295.221 262.08704 291.371 274.01404 282.69202 282.69403C 275.50302 289.88303 266.083 293.75903 256.174 293.75903L256.174 293.75903L256.174 293.759zM216.37401 216.375L240.158 263.943C 242.737 269.10098 247.48201 272.589 253.175 273.513C 258.872 274.437 264.473 272.628 268.551 268.55C 272.629 264.472 274.438 258.86798 273.514 253.17499C 272.59003 247.482 269.10202 242.73698 263.944 240.15799z"
                          stroke="none" fill="#000000" fill-rule="nonzero"/>
                </g>
                <g>
                    <path d="M256 120C 250.477 120 246 115.522 246 110L246 110L246 90C 246 84.478 250.477 80 256 80C 261.522 80 266 84.478 266 90L266 90L266 110C 266 115.522 261.522 120 256 120z"
                          stroke="none" fill="#000000" fill-rule="nonzero"/>
                </g>
                <g>
                    <path d="M359.237 162.763C 356.677 162.763 354.119 161.786 352.166 159.834C 348.261 155.929 348.261 149.597 352.166 145.691L352.166 145.691L366.309 131.54799C 370.215 127.64399 376.54498 127.64399 380.452 131.54799C 384.357 135.45299 384.357 141.78499 380.452 145.691L380.452 145.691L366.309 159.834C 364.35498 161.786 361.797 162.763 359.237 162.763z"
                          stroke="none" fill="#000000" fill-rule="nonzero"/>
                </g>
                <g>
                    <path d="M422 266L402 266C 396.478 266 392 261.522 392 256C 392 250.477 396.478 246 402 246L402 246L422 246C 427.522 246 432 250.477 432 256C 432 261.522 427.522 266 422 266z"
                          stroke="none" fill="#000000" fill-rule="nonzero"/>
                </g>
                <g>
                    <path d="M373.38 383.38C 370.82 383.38 368.262 382.403 366.309 380.45102L366.309 380.45102L352.166 366.308C 348.261 362.403 348.261 356.071 352.166 352.165C 356.072 348.26102 362.40198 348.26102 366.309 352.165L366.309 352.165L380.452 366.308C 384.357 370.213 384.357 376.545 380.452 380.45102C 378.498 382.403 375.94 383.38 373.38 383.38z"
                          stroke="none" fill="#000000" fill-rule="nonzero"/>
                </g>
                <g>
                    <path d="M276 392L236 392C 230.477 392 226 387.522 226 382C 226 376.478 230.477 372 236 372L236 372L276 372C 281.522 372 286 376.478 286 382C 286 387.522 281.522 392 276 392z"
                          stroke="none" fill="#000000" fill-rule="nonzero"/>
                </g>
                <g>
                    <path d="M276 432L236 432C 230.477 432 226 427.522 226 422C 226 416.478 230.477 412 236 412L236 412L276 412C 281.522 412 286 416.478 286 422C 286 427.522 281.522 432 276 432z"
                          stroke="none" fill="#000000" fill-rule="nonzero"/>
                </g>
                <g>
                    <path d="M138.62 383.38C 136.06099 383.38 133.502 382.403 131.549 380.45102C 127.644 376.54602 127.643 370.21402 131.54799 366.308L131.54799 366.308L145.68999 352.165C 149.59499 348.26102 155.92699 348.26102 159.83199 352.165C 163.73698 356.07 163.73799 362.402 159.833 366.308L159.833 366.308L145.691 380.45102C 143.739 382.403 141.179 383.38 138.62 383.38z"
                          stroke="none" fill="#000000" fill-rule="nonzero"/>
                </g>
                <g>
                    <path d="M110 266L90 266C 84.477 266 80 261.522 80 256C 80 250.477 84.477 246 90 246L90 246L110 246C 115.523 246 120 250.477 120 256C 120 261.522 115.523 266 110 266z"
                          stroke="none" fill="#000000" fill-rule="nonzero"/>
                </g>
                <g>
                    <path d="M152.762 162.763C 150.202 162.763 147.644 161.786 145.691 159.834L145.691 159.834L131.549 145.691C 127.644 141.786 127.644 135.454 131.55 131.54799C 135.455 127.64499 141.787 127.64499 145.692 131.54799L145.692 131.54799L159.834 145.691C 163.739 149.596 163.739 155.928 159.833 159.834C 157.881 161.786 155.321 162.763 152.762 162.763z"
                          stroke="none" fill="#000000" fill-rule="nonzero"/>
                </g>
                <g>
                    <path d="M256 512C 187.62 512 123.33299 485.371 74.981 437.02C 26.628002 388.667 0 324.38 0 255.99998C 0 187.61996 26.628 123.33298 74.981 74.97998C 123.33301 26.628979 187.62 -2.2888184E-05 256 -2.2888184E-05C 318.223 -2.2888184E-05 378.204 22.592978 424.897 63.61598C 429.045 67.26198 429.454 73.57998 425.809 77.72898C 422.163 81.875984 415.845 82.28598 411.69598 78.64098C 368.65497 40.825985 313.361 19.999985 255.99998 19.999985C 125.86899 19.999985 19.999985 125.86899 19.999985 255.99998C 19.999985 386.13098 125.86899 492 255.99998 492C 386.13098 492 492 386.13098 492 256C 492 214.493 481.077 173.68 460.412 137.97101C 457.645 133.19101 459.27798 127.073006 464.05798 124.30701C 468.84 121.54001 474.956 123.174 477.722 127.953C 500.14697 166.702 512 210.98001 512 256C 512 324.38 485.371 388.667 437.02 437.02002C 388.667 485.37103 324.38 512 255.99998 512L255.99998 512L256 512z"
                          stroke="none" fill="#000000" fill-rule="nonzero"/>
                </g>
                <g>
                    <path d="M456.175 99.95C 456.175 102.711426 455.1987 105.06845 453.24606 107.021065C 451.29346 108.973694 448.93643 109.950005 446.175 109.95C 443.41357 109.950005 441.05655 108.973694 439.1039 107.021065C 437.1513 105.06845 436.175 102.711426 436.175 99.95C 436.175 97.188576 437.1513 94.83156 439.1039 92.87893C 441.05655 90.926315 443.41357 89.95 446.175 89.95C 448.93643 89.95 451.29346 90.926315 453.24606 92.87893C 455.1987 94.83156 456.175 97.188576 456.175 99.95C 456.175 100.06637 456.17297 100.1827 456.16888 100.29899"
                          stroke="none" fill="#000000" fill-rule="nonzero"/>
                </g>
            </g>
        </g>
    </g>
</svg>