<?xml version="1.0" encoding="utf-8"?>
<!-- Generator: Adobe Illustrator 26.0.3, SVG Export Plug-In . SVG Version: 6.00 Build 0)  -->
<svg version="1.1" id="Шар_1" xmlns:svgjs="http://svgjs.com/svgjs"
	 xmlns="http://www.w3.org/2000/svg" xmlns:xlink="http://www.w3.org/1999/xlink" x="0px" y="0px" viewBox="0 0 512 512"
	 style="enable-background:new 0 0 512 512;" xml:space="preserve">
<style type="text/css">
	.st0{fill:url(#SVGID_1_);}
	.st1{fill:url(#SVGID_00000029743220770783516200000000012032582231322267_);}
	.st2{fill:url(#SVGID_00000054231900993816026010000007151286815550662560_);}
	.st3{fill:url(#SVGID_00000173121179373461733340000010892121858667764870_);}
	.st4{fill:#9BB9C1;}
</style>
<g>
	<g id="_05-couldy">
		
			<linearGradient id="SVGID_1_" gradientUnits="userSpaceOnUse" x1="57.2131" y1="335.2208" x2="174.7752" y2="452.7829" gradientTransform="matrix(1 0 0 -1 0 514)">
			<stop  offset="0.1441" style="stop-color:#404A4A"/>
			<stop  offset="1" style="stop-color:#617881"/>
		</linearGradient>
		<path class="st0" d="M162.6,68.1c-6.6-28-34.6-45.3-62.6-38.7C80.5,34,65.3,49.5,61.1,69.1c-28.1,6-46,33.6-40,61.7
			c5.1,24,26.3,41.2,50.9,41.2h88c28.7,0,52-23.3,52-52C212,92.3,190.3,69.5,162.6,68.1z"/>
		
			<linearGradient id="SVGID_00000145045803663528739180000016514729576591797156_" gradientUnits="userSpaceOnUse" x1="103.9756" y1="44.9756" x2="404.0244" y2="345.0244" gradientTransform="matrix(1 0 0 -1 0 514)">
			<stop  offset="0" style="stop-color:#475959"/>
			<stop  offset="1" style="stop-color:#9BB9C1"/>
		</linearGradient>
		<path style="fill:url(#SVGID_00000145045803663528739180000016514729576591797156_);" d="M390,203c-1.3,0-2.7,0-4.1,0.1
			C383.9,132.1,325.5,75,254,75s-129.9,57.1-131.9,128.1c-1.4,0-2.7-0.1-4.1-0.1C53.9,203,2,254.9,2,319s51.9,116,116,116h272
			c64.1,0,116-51.9,116-116S454.1,203,390,203L390,203z"/>
		
			<linearGradient id="SVGID_00000123441874420295172650000000441118044458456760_" gradientUnits="userSpaceOnUse" x1="353.2131" y1="263.2208" x2="470.7752" y2="380.7829" gradientTransform="matrix(1 0 0 -1 0 514)">
			<stop  offset="0.1441" style="stop-color:#404A4A"/>
			<stop  offset="1" style="stop-color:#617881"/>
		</linearGradient>
		<path style="fill:url(#SVGID_00000123441874420295172650000000441118044458456760_);" d="M458.6,140.1
			c-6.6-28-34.6-45.3-62.6-38.7c-19.6,4.6-34.7,20.1-38.9,39.8c-28.1,6-46,33.6-40,61.7c5.1,24,26.3,41.2,50.9,41.2h88
			c28.7,0,52-23.3,52-52C508,164.3,486.3,141.5,458.6,140.1L458.6,140.1z"/>
		
			<linearGradient id="SVGID_00000131367916376605944830000009523946832940340885_" gradientUnits="userSpaceOnUse" x1="177.2131" y1="31.2208" x2="294.7751" y2="148.7829" gradientTransform="matrix(1 0 0 -1 0 514)">
			<stop  offset="0.1441" style="stop-color:#404A4A"/>
			<stop  offset="1" style="stop-color:#617881"/>
		</linearGradient>
		<path style="fill:url(#SVGID_00000131367916376605944830000009523946832940340885_);" d="M282.6,372.1
			c-6.6-28-34.6-45.3-62.6-38.7c-19.6,4.6-34.7,20.1-38.9,39.8c-28.1,6-46,33.6-40,61.7c5.1,24,26.3,41.2,50.9,41.2h88
			c28.7,0,52-23.3,52-52C332,396.3,310.3,373.5,282.6,372.1z"/>
	</g>
</g>
<g>
	<path class="st4" d="M367,345.8h-28.8c-2.9,0-5.6-1.7-6.9-4.3c-1.3-2.6-1-5.8,0.8-8.1l25.5-33.4c1.1-1.5,1.7-3.3,1.7-5.1
		c0-3.7-3-6.7-6.7-6.7s-6.7,3-6.7,6.7c0,4.3-3.5,7.7-7.7,7.7s-7.7-3.5-7.7-7.7c0-12.2,9.9-22.1,22.1-22.1s22.1,9.9,22.1,22.1
		c0,5.2-1.7,10.3-4.9,14.5l-16,21H367c4.3,0,7.7,3.5,7.7,7.7C374.7,342.4,371.2,345.8,367,345.8L367,345.8z"/>
</g>
<g>
	<path class="st4" d="M184.1,324.1c-11.2,0-22.3-4.2-30.8-12.8c-17-17-17-44.7,0-61.7c17-17,44.7-17,61.7,0c3,3,3,7.9,0,10.9
		c-3,3-7.9,3-10.9,0c-11-11-28.8-11-39.8,0c-11,11-11,28.8,0,39.8c11,11,28.8,11,39.8,0c3-3,7.9-3,10.9,0c3,3,3,7.9,0,10.9
		C206.5,319.8,195.3,324.1,184.1,324.1L184.1,324.1z"/>
</g>
<g>
	<path class="st4" d="M276.5,324.1c-24,0-43.6-19.6-43.6-43.6c0-24,19.6-43.6,43.6-43.6s43.6,19.6,43.6,43.6
		C320.1,304.5,300.6,324.1,276.5,324.1z M276.5,252.3c-15.5,0-28.2,12.6-28.2,28.2c0,15.5,12.6,28.2,28.2,28.2s28.2-12.6,28.2-28.2
		C304.7,265,292.1,252.3,276.5,252.3z"/>
</g>
</svg>
