<svg xmlns="http://www.w3.org/2000/svg" version="1.1" xmlns:xlink="http://www.w3.org/1999/xlink" xmlns:svgjs="http://svgjs.com/svgjs" width="512" height="512" x="0" y="0" viewBox="0 0 512 512" style="enable-background:new 0 0 512 512" xml:space="preserve" class=""><g><linearGradient xmlns="http://www.w3.org/2000/svg" id="New_Gradient_Swatch_31" gradientUnits="userSpaceOnUse" x1="108.014" x2="407.986" y1="397.986" y2="98.014"><stop offset=".015" stop-color="#8c84bc"></stop><stop offset="1" stop-color="#dbdfec"></stop></linearGradient><linearGradient xmlns="http://www.w3.org/2000/svg" id="New_Gradient_Swatch_30" gradientUnits="userSpaceOnUse" x1="67.757" x2="240.243" y1="356.243" y2="183.757"><stop offset=".015" stop-color="#f9cd55"></stop><stop offset="1" stop-color="#fee9d9"></stop></linearGradient><linearGradient xmlns="http://www.w3.org/2000/svg" id="New_Gradient_Swatch_30-2" x1="243.757" x2="416.243" xmlns:xlink="http://www.w3.org/1999/xlink" xlink:href="#New_Gradient_Swatch_30" y1="356.243" y2="183.757"></linearGradient><g xmlns="http://www.w3.org/2000/svg" id="_04-thunder" data-name="04-thunder"><g id="gradient"><path d="m394 132c-1.348 0-2.7.023-4.058.07-2.086-70.97-60.472-128.07-131.942-128.07s-129.856 57.1-131.942 128.07c-1.355-.047-2.71-.07-4.058-.07a116 116 0 0 0 0 232h272a116 116 0 0 0 0-232z" fill="url(#New_Gradient_Swatch_31)" data-original="url(#New_Gradient_Swatch_31)"></path><path d="m245.464 189.521a6 6 0 0 0 -5.464-3.521h-88a6 6 0 0 0 -5.366 3.317l-48 96a6 6 0 0 0 5.366 8.683h31.876l-29.61 96.235a6 6 0 0 0 10.1 5.877l128-136a6 6 0 0 0 -4.366-10.112h-42.777l47.293-54.049a6 6 0 0 0 .948-6.43z" fill="url(#New_Gradient_Swatch_30)" data-original="url(#New_Gradient_Swatch_30)"></path><path d="m416 250h-42.777l47.293-54.049a6 6 0 0 0 -4.516-9.951h-88a6 6 0 0 0 -5.366 3.317l-48 96a6 6 0 0 0 5.366 8.683h31.876l-29.61 96.235a6 6 0 0 0 10.1 5.877l128-136a6 6 0 0 0 -4.366-10.112z" fill="url(#New_Gradient_Swatch_30-2)" data-original="url(#New_Gradient_Swatch_30-2)"></path><g fill="#c9e4dd"><path d="m168 448a12 12 0 0 1 -12-12v-8a12 12 0 0 1 24 0v8a12 12 0 0 1 -12 12z" fill="#c9e4dd" data-original="#c9e4dd"></path><path d="m168 508a12 12 0 0 1 -12-12v-8a12 12 0 0 1 24 0v8a12 12 0 0 1 -12 12z" fill="#c9e4dd" data-original="#c9e4dd"></path><path d="m256 448a12 12 0 0 1 -12-12v-8a12 12 0 0 1 24 0v8a12 12 0 0 1 -12 12z" fill="#c9e4dd" data-original="#c9e4dd"></path><path d="m256 508a12 12 0 0 1 -12-12v-8a12 12 0 0 1 24 0v8a12 12 0 0 1 -12 12z" fill="#c9e4dd" data-original="#c9e4dd"></path><path d="m344 448a12 12 0 0 1 -12-12v-8a12 12 0 0 1 24 0v8a12 12 0 0 1 -12 12z" fill="#c9e4dd" data-original="#c9e4dd"></path><path d="m344 508a12 12 0 0 1 -12-12v-8a12 12 0 0 1 24 0v8a12 12 0 0 1 -12 12z" fill="#c9e4dd" data-original="#c9e4dd"></path></g></g></g></g></svg>