<svg xmlns="http://www.w3.org/2000/svg" version="1.1" xmlns:xlink="http://www.w3.org/1999/xlink" xmlns:svgjs="http://svgjs.com/svgjs" width="512" height="512" x="0" y="0" viewBox="0 0 33.866666 33.866668" style="enable-background:new 0 0 512 512" xml:space="preserve" class=""><g><linearGradient xmlns="http://www.w3.org/2000/svg" id="linearGradient3363" gradientUnits="userSpaceOnUse" x1="-180.440378" x2="-180.440378" y1="97.375304" y2="99.607314"><stop id="stop2198" offset="0" stop-color="#f6f600"></stop><stop id="stop2200" offset="1" stop-color="#f69134"></stop></linearGradient><linearGradient xmlns="http://www.w3.org/2000/svg" id="linearGradient6034" gradientUnits="userSpaceOnUse" x1="15.01" x2="15.01" y1="1.058" y2="10.305"><stop id="stop3724" offset="0" stop-color="#f5f8ff"></stop><stop id="stop3726" offset="1" stop-color="#a0c9ff"></stop></linearGradient><linearGradient xmlns="http://www.w3.org/2000/svg" id="linearGradient3218"><stop id="stop3214" offset="0" stop-color="#eaf2ff"></stop><stop id="stop3216" offset="1" stop-color="#9bbaff"></stop></linearGradient><linearGradient xmlns="http://www.w3.org/2000/svg" id="linearGradient6257" gradientUnits="userSpaceOnUse" x1="16.933" x2="14.552" xmlns:xlink="http://www.w3.org/1999/xlink" xlink:href="#linearGradient3218" y1="10.914" y2="32.808"></linearGradient><linearGradient xmlns="http://www.w3.org/2000/svg" id="linearGradient6284" gradientUnits="userSpaceOnUse" x1="82.483" x2="-6.733" y1="64" y2="52.498"><stop id="stop6307" offset="0" stop-color="#f3ffff"></stop><stop id="stop6309" offset="1" stop-color="#9bbaff"></stop></linearGradient><linearGradient xmlns="http://www.w3.org/2000/svg" id="linearGradient6305" gradientUnits="userSpaceOnUse" x1="64" x2="114" xmlns:xlink="http://www.w3.org/1999/xlink" xlink:href="#linearGradient3218" y1="114" y2="88.75"></linearGradient><linearGradient xmlns="http://www.w3.org/2000/svg" id="linearGradient6268"><stop id="stop6264" offset="0" stop-color="#00ce4e"></stop><stop id="stop6266" offset="1" stop-color="#a7e890"></stop></linearGradient><linearGradient xmlns="http://www.w3.org/2000/svg" id="linearGradient6387" gradientUnits="userSpaceOnUse" x1="11.149" x2="5.902" xmlns:xlink="http://www.w3.org/1999/xlink" xlink:href="#linearGradient6268" y1="25.863" y2="20.869"></linearGradient><linearGradient xmlns="http://www.w3.org/2000/svg" id="linearGradient6395" gradientUnits="userSpaceOnUse" x1="26.444" x2="31.489" xmlns:xlink="http://www.w3.org/1999/xlink" xlink:href="#linearGradient6268" y1="10.874" y2="10.874"></linearGradient><g xmlns="http://www.w3.org/2000/svg" id="layer1"><path id="path6249" d="m2.3812503 6.0803816c0 2.1306161-.6704256 10.6517414 12.1181217 14.0784214 9.775366 2.619302-.140317 11.326615-.140317 11.326615-.88374.88374.82189 1.870234 2.57428.958829 1.752389-.911404 13.000851-4.474492 13.18794-12.332216.187087-7.857724-5.186168-7.641289-3.180509-14.1105209-7.959369 0-24.1169916.078871-24.5595157.078871z" fill="url(#linearGradient6257)" stroke-linecap="round" stroke-linejoin="round" stroke-width="2.646" paint-order="fill markers stroke" data-original="url(#linearGradient6257)"></path><path id="path6025" d="m26.940767 6.0015101a12.279758 4.9431767 0 0 1 -12.279758 4.9431769 12.279758 4.9431767 0 0 1 -12.2797586-4.9431769 12.279758 4.9431767 0 0 1 12.2797586-4.9431767 12.279758 4.9431767 0 0 1 12.279758 4.9431767z" fill="url(#linearGradient6034)" stroke-linecap="round" stroke-linejoin="round" stroke-width="2.646" paint-order="fill markers stroke" data-original="url(#linearGradient6034)"></path><path id="path6268" d="m12.976562 46.025391c-1.316398.571196-2.529581 1.185622-3.6093745 1.861328-1.8940702 1.185256-3.5019688 2.555785-4.5390625 4.53125-1.037094 1.975461-1.1258502 4.707463-.125 6.785156 2.0016971 4.155398 6.079048 6.024349 11.242187 7.779297 5.16314 1.754952 11.716841 3.028884 19.273438 3.74414 15.113195 1.430506 31.532412.404129 43.220703-2.873046 2.125435-.597332 3.365005-2.803732 2.769531-4.929688-.594733-2.128786-2.803296-3.371704-4.93164-2.77539-10.174511 2.852742-26.123447 3.955576-40.304688 2.613281-7.090621-.67115-13.520513-.987735-20.641053-4.703588-1.962788-1.024281-3.835171-2.535558.022736-4.321247.499401-.231155 1.049272-.46392 1.645661-.695868-1.656854-2.345523-2.978884-4.700584-4.023438-7.015625z" fill="url(#linearGradient6284)" transform="scale(.265)" font-variant-ligatures="normal" font-variant-position="normal" font-variant-caps="normal" font-variant-numeric="normal" font-variant-alternates="normal" font-variant-east-asian="normal" font-feature-settings="normal" font-variation-settings="normal" text-indent="0" text-align="start" text-decoration-line="none" text-decoration-style="solid" text-decoration-color="#000000" text-transform="none" text-orientation="mixed" white-space="normal" shape-padding="0" shape-margin="0" inline-size="0" isolation="auto" mix-blend-mode="normal" solid-color="#000000" solid-opacity="1" vector-effect="none" paint-order="fill markers stroke" data-original="url(#linearGradient6284)"></path><path id="path6289" d="m113.25977 81.183594c-.5347 2.704929-1.42037 5.25814-2.58789 7.667968 1.35541.518278 2.48272 1.037576 3.34286 1.521529 1.89717 1.067429 1.35486 2.12261-.0122 2.884717-2.25415 1.256652-6.25666 2.772175-11.23108 3.806645-6.482237 1.348033-14.662644 2.157929-23.349605 2.162109-2.207614.0032-3.995221 1.794338-3.994141 4.001958.0032 2.20761 1.79434 3.99522 4.001954 3.99414 9.174848-.004 17.802869-.83678 24.964842-2.32618 7.16197-1.48938 12.81442-3.35323 16.56445-6.798824 1.87502-1.722795 3.28541-4.244283 3.03516-6.939453-.25026-2.695173-1.89378-4.750824-3.81641-6.273437-1.85825-1.471628-4.16611-2.677889-6.91796-3.701172z" fill="url(#linearGradient6305)" transform="scale(.265)" font-variant-ligatures="normal" font-variant-position="normal" font-variant-caps="normal" font-variant-numeric="normal" font-variant-alternates="normal" font-variant-east-asian="normal" font-feature-settings="normal" font-variation-settings="normal" text-indent="0" text-align="start" text-decoration-line="none" text-decoration-style="solid" text-decoration-color="#000000" text-transform="none" text-orientation="mixed" white-space="normal" shape-padding="0" shape-margin="0" inline-size="0" isolation="auto" mix-blend-mode="normal" solid-color="#000000" solid-opacity="1" vector-effect="none" paint-order="fill markers stroke" data-original="url(#linearGradient6305)"></path><path id="path6313" d="m11.057062 22.380298c1.074027 1.081308 1.201839 2.695739.285477 3.605932-.916363.910193-2.529894.771476-3.6039215-.309832-1.0740282-1.081309-1.5784344-3.804961-1.0271001-4.352583s3.2715164-.02483 4.3455446 1.056483z" fill="url(#linearGradient6387)" paint-order="fill markers stroke" data-original="url(#linearGradient6387)"></path><path id="path6316" d="m26.953435 9.925105c-.82988 1.278303-.624437 2.884701.45887 3.587991 1.083309.703289 2.634256.237147 3.464136-1.041156.829883-1.278304.765947-4.0475313.114169-4.4706687-.651778-.4231372-3.207294.6455254-4.037175 1.9238337z" fill="url(#linearGradient6395)" paint-order="fill markers stroke" data-original="url(#linearGradient6395)"></path><path id="path6403" d="m25.908203 10.326172-.462891.248047.121094.234375.46875-.251953zm-22.1855468.167969-.1230468.234375.4746094.238281.1191406-.236328zm21.0136718.416015-.486328.203125.101562.244141.488282-.205078zm-19.8261718.136719-.099609.246094.4921875.195312.097656-.246093zm18.6054688.341797-.501953.166016.08203.251953.503906-.166016zm-17.375.113281-.080078.251953.5058593.158203.078125-.251953zm16.119141.279297-.509766.134766.06641.255859.513672-.136719zm-14.8554691.0918-.068359.255859.515625.128906.0624996-.257815zm13.5781251.222656-.515625.109375.05273.257813.519531-.107422zm-12.2988282.07422-.050781.259766.5195313.101562.050781-.259766zm11.0078122.175781-.523437.08008.04102.261719.523438-.08008zm-9.7109372.05469-.039063.261718.5253908.07617.03711-.261719zm8.4062502.128906-.525391.05859.0293.263671.527344-.05859zm-7.09961.03906-.0293.263672.529297.05274.02539-.263672zm5.789063.08789-.527344.03516.01563.263672.529297-.03516zm-4.476563.02344-.01758.265624.53125.0293.01172-.265625zm3.160157.04883-.527344.01172.0059.265625.529297-.01367zm-1.845704.0098-.0039.263672.53125.0078v-.265625z" fill="#6e98f5" font-variant-ligatures="normal" font-variant-position="normal" font-variant-caps="normal" font-variant-numeric="normal" font-variant-alternates="normal" font-variant-east-asian="normal" font-feature-settings="normal" font-variation-settings="normal" text-indent="0" text-align="start" text-decoration-line="none" text-decoration-style="solid" text-decoration-color="#000000" text-transform="none" text-orientation="mixed" white-space="normal" shape-padding="0" shape-margin="0" inline-size="0" isolation="auto" mix-blend-mode="normal" solid-color="#000000" solid-opacity="1" vector-effect="none" paint-order="fill markers stroke" data-original="#6e98f5"></path></g></g></svg>