<?xml version="1.0" encoding="utf-8"?>
<!-- Generator: Adobe Illustrator 26.0.3, SVG Export Plug-In . SVG Version: 6.00 Build 0)  -->
<svg version="1.1" id="Шар_1" xmlns:svgjs="http://svgjs.com/svgjs"
	 xmlns="http://www.w3.org/2000/svg" xmlns:xlink="http://www.w3.org/1999/xlink" x="0px" y="0px" viewBox="0 0 512 512"
	 style="enable-background:new 0 0 512 512;" xml:space="preserve">
<style type="text/css">
	.st0{fill:url(#path6249_00000164509508074304851250000015005253632284333196_);}
	.st1{fill:url(#path6025_00000078030464344046555290000006620433384024224919_);}
	.st2{fill:url(#path6268_00000170257489894762719820000008185623004824121757_);}
	.st3{fill:url(#path6289_00000060001721073414093340000009058851369557239484_);}
</style>
<g>
	<g id="layer1">
		
			<linearGradient id="path6249_00000066491281143101878410000008660077118552544410_" gradientUnits="userSpaceOnUse" x1="-639.9911" y1="767.4129" x2="-642.3721" y2="745.5189" gradientTransform="matrix(15.1181 0 0 -15.1181 9925.0312 11766.1338)">
			<stop  offset="0" style="stop-color:#EAF2FF"/>
			<stop  offset="1" style="stop-color:#9BBAFF"/>
		</linearGradient>
		<path id="path6249" style="fill:url(#path6249_00000066491281143101878410000008660077118552544410_);" d="M36,91.9
			c0,32.2-10.1,161,183.2,212.8C367,344.4,217.1,476,217.1,476c-13.4,13.4,12.4,28.3,38.9,14.5c26.5-13.8,196.5-67.6,199.4-186.4
			c2.8-118.8-78.4-115.5-48.1-213.3C287,90.7,42.7,91.9,36,91.9L36,91.9z"/>
		
			<linearGradient id="path6025_00000183940521961178686140000013152268737286579639_" gradientUnits="userSpaceOnUse" x1="-641.8384" y1="777.2224" x2="-641.8384" y2="767.9754" gradientTransform="matrix(15.1181 0 0 -15.1181 9925.0312 11766.1338)">
			<stop  offset="0" style="stop-color:#F5F8FF"/>
			<stop  offset="1" style="stop-color:#A0C9FF"/>
		</linearGradient>
		<path id="path6025" style="fill:url(#path6025_00000183940521961178686140000013152268737286579639_);" d="M407.3,90.7
			c0,41.3-83.1,74.7-185.6,74.7l0,0C119.1,165.5,36,132,36,90.7l0,0C36,49.5,119.1,16,221.6,16c0,0,0,0,0,0
			C324.2,16,407.3,49.5,407.3,90.7L407.3,90.7z"/>
		
			<linearGradient id="path6268_00000087386760313678892110000005437037270137631370_" gradientUnits="userSpaceOnUse" x1="-445.2893" y1="660.4531" x2="-534.5053" y2="671.9551" gradientTransform="matrix(4.0063 0 0 -4.0063 2113.4282 2910.0203)">
			<stop  offset="0" style="stop-color:#F3FFFF"/>
			<stop  offset="1" style="stop-color:#9BBAFF"/>
		</linearGradient>
		<path id="path6268" vector-effect="none" style="fill:url(#path6268_00000087386760313678892110000005437037270137631370_);" d="
			M52,184.4c-5.3,2.3-10.1,4.7-14.5,7.5c-7.6,4.7-14,10.2-18.2,18.2s-4.5,18.9-0.5,27.2c8,16.6,24.4,24.1,45,31.2
			c20.7,7,46.9,12.1,77.2,15c60.5,5.7,126.3,1.6,173.2-11.5c8.5-2.4,13.5-11.2,11.1-19.7c-2.4-8.5-11.2-13.5-19.8-11.1
			c-40.8,11.4-104.7,15.8-161.5,10.5c-28.4-2.7-54.2-4-82.7-18.8c-7.9-4.1-15.4-10.2,0.1-17.3c2-0.9,4.2-1.9,6.6-2.8
			C61.5,203.1,56.2,193.7,52,184.4z"/>
		
			<linearGradient id="path6289_00000103966782969060932910000012192926275841866430_" gradientUnits="userSpaceOnUse" x1="-462.3839" y1="610.0991" x2="-412.3839" y2="635.3491" gradientTransform="matrix(4.0063 0 0 -4.0063 2113.4282 2910.0203)">
			<stop  offset="0" style="stop-color:#EAF2FF"/>
			<stop  offset="1" style="stop-color:#9BBAFF"/>
		</linearGradient>
		<path id="path6289" vector-effect="none" style="fill:url(#path6289_00000103966782969060932910000012192926275841866430_);" d="
			M453.8,325.2c-2.1,10.8-5.7,21.1-10.4,30.7c5.4,2.1,9.9,4.2,13.4,6.1c7.6,4.3,5.4,8.5,0,11.6c-9,5-25.1,11.1-45,15.3
			c-26,5.4-58.7,8.6-93.5,8.7c-8.8,0-16,7.2-16,16c0,8.8,7.2,16,16,16c36.8,0,71.3-3.4,100-9.3c28.7-6,51.3-13.4,66.4-27.2
			c7.5-6.9,13.2-17,12.2-27.8c-1-10.8-7.6-19-15.3-25.1C474,334.2,464.8,329.3,453.8,325.2L453.8,325.2z"/>
	</g>
</g>
</svg>
