<?xml version="1.0" standalone="no"?>
<!DOCTYPE svg PUBLIC "-//W3C//DTD SVG 1.0//EN" "http://www.w3.org/TR/2001/REC-SVG-20010904/DTD/svg10.dtd">
<svg xmlns="http://www.w3.org/2000/svg" xmlns:xlink="http://www.w3.org/1999/xlink" id="body_1" width="20" height="20">

<g transform="matrix(0.0390625 0 0 0.0390625 0 0)">
	<g>
        <path d="M434.625 89.46C 413.957 89.46 394.526 97.507996 379.912 112.123C 374.054 117.981 374.054 127.478 379.912 133.336C 385.76898 139.194 395.267 139.194 401.125 133.336C 410.073 124.388 421.971 119.46 434.625 119.46C 460.748 119.46 482 140.712 482 166.83499C 482 192.95798 460.748 214.20999 434.625 214.20999L434.625 214.20999L139.186 214.20999C 130.90201 214.20999 124.186005 220.926 124.186005 229.20999C 124.186005 237.49399 130.90201 244.20999 139.186 244.20999L139.186 244.20999L434.625 244.20999C 477.29 244.20999 512 209.5 512 166.83499C 512 124.16998 477.29 89.45999 434.625 89.45999L434.625 89.45999L434.625 89.46z" stroke="none" fill="#000000" fill-rule="nonzero" />
        <path d="M230.487 282.256L15 282.256C 6.7159996 282.256 0 288.97202 0 297.256C 0 305.54 6.716 312.256 15 312.256L15 312.256L230.487 312.256C 256.61 312.256 277.863 333.509 277.863 359.631C 277.863 385.754 256.61002 407.00702 230.487 407.00702C 217.833 407.00702 205.935 402.079 196.989 393.131C 191.13 387.272 181.632 387.273 175.775 393.13C 169.91798 398.987 169.91699 408.48502 175.77399 414.34302C 190.38799 428.958 209.81898 437.00702 230.48698 437.00702C 273.15198 437.00702 307.86298 402.29703 307.86298 359.631C 307.86298 316.967 273.15198 282.256 230.48697 282.256L230.48697 282.256L230.487 282.256z" stroke="none" fill="#000000" fill-rule="nonzero" />
        <path d="M418.006 282.256L343.20203 282.256C 334.91803 282.256 328.20203 288.97202 328.20203 297.256C 328.20203 305.54 334.91803 312.256 343.20203 312.256L343.20203 312.256L418.00604 312.256C 432.86804 312.256 444.95905 324.34702 444.95905 339.209C 444.95905 354.071 432.86804 366.16202 418.00604 366.16202C 410.80804 366.16202 404.03806 363.35803 398.94604 358.26703C 393.08905 352.41003 383.59103 352.41003 377.73303 358.26804C 371.87503 364.12604 371.87704 373.62402 377.73505 379.48105C 388.49304 390.23706 402.79404 396.16104 418.00504 396.16104C 449.40903 396.16104 474.95804 370.61203 474.95804 339.20804C 474.95804 307.80405 449.41003 282.25604 418.00604 282.25604L418.00604 282.25604L418.006 282.256z" stroke="none" fill="#000000" fill-rule="nonzero" />
        <path d="M15 176.165L263.372 176.165C 271.656 176.165 278.372 169.44899 278.372 161.165C 278.372 152.881 271.656 146.165 263.372 146.165L263.372 146.165L15.000015 146.165C 6.716015 146.165 1.5258789E-05 152.881 1.5258789E-05 161.165C 1.5258789E-05 169.44899 6.7160153 176.165 15.000015 176.165L15.000015 176.165L15 176.165z" stroke="none" fill="#000000" fill-rule="nonzero" />
        <path d="M183.487 104.993L319.57202 104.993C 327.85602 104.993 334.57202 98.27699 334.57202 89.993C 334.57202 81.709 327.85602 74.993 319.57202 74.993L319.57202 74.993L183.48701 74.993C 175.20302 74.993 168.48701 81.709 168.48701 89.993C 168.48701 98.27699 175.20302 104.993 183.48701 104.993L183.48701 104.993L183.487 104.993z" stroke="none" fill="#000000" fill-rule="nonzero" />
        <path d="M61.325 214.21C 53.041 214.21 46.325 220.92601 46.325 229.21C 46.325 237.494 53.041 244.21 61.325 244.21L61.325 244.21L79.186005 244.21C 87.47 244.21 94.186005 237.494 94.186005 229.21C 94.186005 220.92601 87.47 214.21 79.186005 214.21L79.186005 214.21L61.325 214.21z" stroke="none" fill="#000000" fill-rule="nonzero" />
	</g>
</g>
</svg>