<svg xmlns="http://www.w3.org/2000/svg" version="1.1" xmlns:xlink="http://www.w3.org/1999/xlink" xmlns:svgjs="http://svgjs.com/svgjs" width="512" height="512" x="0" y="0" viewBox="0 0 512 512" style="enable-background:new 0 0 512 512" xml:space="preserve" class=""><g><linearGradient xmlns="http://www.w3.org/2000/svg" id="New_Gradient_Swatch_28" gradientUnits="userSpaceOnUse" x1="106.014" x2="405.986" y1="397.986" y2="98.014"><stop offset=".015" stop-color="#b7bfd8"></stop><stop offset="1" stop-color="#e4f2ee"></stop></linearGradient><g xmlns="http://www.w3.org/2000/svg" id="_06-snow" data-name="06-snow"><g id="gradient"><path d="m392 132c-1.348 0-2.7.023-4.058.07-2.086-70.97-60.472-128.07-131.942-128.07s-129.856 57.1-131.942 128.07c-1.355-.047-2.71-.07-4.058-.07a116 116 0 0 0 0 232h272a116 116 0 0 0 0-232z" fill="url(#New_Gradient_Swatch_28)" data-original="url(#New_Gradient_Swatch_28)"></path><path d="m320 204h-35.029l19.514-19.515a12 12 0 0 0 -16.97-16.97l-19.515 19.514v-35.029a12 12 0 0 0 -24 0v35.029l-19.515-19.514a12 12 0 0 0 -16.97 16.97l19.514 19.515h-35.029a12 12 0 0 0 0 24h35.029l-19.514 19.515a12 12 0 1 0 16.97 16.97l19.515-19.514v35.029a12 12 0 0 0 24 0v-35.029l19.515 19.514a12 12 0 0 0 16.97-16.97l-19.514-19.515h35.029a12 12 0 0 0 0-24z" fill="#8c84bc" data-original="#8c84bc"></path><g fill="#a9a3cd"><circle cx="256" cy="396" r="12" fill="#a9a3cd" data-original="#a9a3cd"></circle><circle cx="256" cy="444" r="12" fill="#a9a3cd" data-original="#a9a3cd"></circle><circle cx="256" cy="492" r="12" fill="#a9a3cd" data-original="#a9a3cd"></circle><circle cx="340" cy="396" r="12" fill="#a9a3cd" data-original="#a9a3cd"></circle><circle cx="340" cy="444" r="12" fill="#a9a3cd" data-original="#a9a3cd"></circle><circle cx="340" cy="492" r="12" fill="#a9a3cd" data-original="#a9a3cd"></circle><circle cx="172" cy="396" r="12" fill="#a9a3cd" data-original="#a9a3cd"></circle><circle cx="172" cy="444" r="12" fill="#a9a3cd" data-original="#a9a3cd"></circle><circle cx="172" cy="492" r="12" fill="#a9a3cd" data-original="#a9a3cd"></circle></g></g></g></g></svg>