<svg xmlns="http://www.w3.org/2000/svg" version="1.1" xmlns:xlink="http://www.w3.org/1999/xlink" xmlns:svgjs="http://svgjs.com/svgjs" width="512" height="512" x="0" y="0" viewBox="0 0 512 512" style="enable-background:new 0 0 512 512" xml:space="preserve" class=""><g><linearGradient xmlns="http://www.w3.org/2000/svg" id="New_Gradient_Swatch_34" gradientUnits="userSpaceOnUse" x1="259.322" x2="400.678" y1="246.678" y2="105.322"><stop offset=".015" stop-color="#f9cd55"></stop><stop offset="1" stop-color="#fdbc8c"></stop></linearGradient><linearGradient xmlns="http://www.w3.org/2000/svg" id="New_Gradient_Swatch_28" gradientUnits="userSpaceOnUse" x1="106.014" x2="405.986" y1="541.986" y2="242.014"><stop offset=".015" stop-color="#b7bfd8"></stop><stop offset="1" stop-color="#e4f2ee"></stop></linearGradient><linearGradient xmlns="http://www.w3.org/2000/svg" id="New_Gradient_Swatch_31" gradientUnits="userSpaceOnUse" x1="198.78" x2="313.481" y1="414.927" y2="300.227"><stop offset=".015" stop-color="#8c84bc"></stop><stop offset="1" stop-color="#dbdfec"></stop></linearGradient><g xmlns="http://www.w3.org/2000/svg" id="_33-day_rain" data-name="33-day rain"><g id="gradient_blend" data-name="gradient blend"><circle cx="330" cy="176" fill="url(#New_Gradient_Swatch_34)" r="100" data-original="url(#New_Gradient_Swatch_34)"></circle><g fill="#fce6aa"><path d="m330 52a12 12 0 0 1 -12-12v-16a12 12 0 0 1 24 0v16a12 12 0 0 1 -12 12z" fill="#fce6aa" data-original="#fce6aa"></path><path d="m258.011 71.294a12 12 0 0 1 -10.4-6l-8-13.856a12 12 0 1 1 20.784-12l8 13.856a12 12 0 0 1 -10.381 18z" fill="#fce6aa" data-original="#fce6aa"></path><path d="m205.281 124a11.958 11.958 0 0 1 -5.989-1.609l-13.856-8a12 12 0 0 1 12-20.786l13.856 8a12 12 0 0 1 -6.011 22.395z" fill="#fce6aa" data-original="#fce6aa"></path><path d="m468.553 276a11.956 11.956 0 0 1 -5.989-1.609l-13.856-8a12 12 0 1 1 12-20.786l13.856 8a12 12 0 0 1 -6.011 22.4z" fill="#fce6aa" data-original="#fce6aa"></path><path d="m490 196h-16a12 12 0 0 1 0-24h16a12 12 0 0 1 0 24z" fill="#fce6aa" data-original="#fce6aa"></path><path d="m454.719 124a12 12 0 0 1 -6.011-22.395l13.856-8a12 12 0 0 1 12 20.786l-13.856 8a11.958 11.958 0 0 1 -5.989 1.609z" fill="#fce6aa" data-original="#fce6aa"></path><path d="m401.989 71.294a12 12 0 0 1 -10.381-18l8-13.856a12 12 0 1 1 20.784 12l-8 13.856a11.993 11.993 0 0 1 -10.403 6z" fill="#fce6aa" data-original="#fce6aa"></path></g><path d="m392 276c-1.348 0-2.7.023-4.058.07-2.086-70.97-60.472-128.07-131.942-128.07s-129.856 57.1-131.942 128.07c-1.355-.047-2.71-.07-4.058-.07a116 116 0 0 0 0 232h272a116 116 0 0 0 0-232z" fill="url(#New_Gradient_Swatch_28)" data-original="url(#New_Gradient_Swatch_28)"></path><path d="m297.809 292c-16.206-22.113-32.171-39.539-32.842-40.27a12 12 0 0 0 -17.673 0c-.671.731-16.636 18.157-32.842 40.27-23.095 31.513-34.322 55.342-34.322 72.849a76 76 0 1 0 152 0c0-17.508-11.23-41.337-34.321-72.849z" fill="url(#New_Gradient_Swatch_31)" data-original="url(#New_Gradient_Swatch_31)"></path></g></g></g></svg>