<svg xmlns="http://www.w3.org/2000/svg" version="1.1" xmlns:xlink="http://www.w3.org/1999/xlink" xmlns:svgjs="http://svgjs.com/svgjs" width="512" height="512" x="0" y="0" viewBox="0 0 512 512" style="enable-background:new 0 0 512 512" xml:space="preserve" class=""><g><linearGradient xmlns="http://www.w3.org/2000/svg" id="New_Gradient_Swatch_31" gradientUnits="userSpaceOnUse" x1="77.809" x2="434.191" y1="434.191" y2="77.809"><stop offset=".015" stop-color="#8c84bc"></stop><stop offset="1" stop-color="#dbdfec"></stop></linearGradient><linearGradient xmlns="http://www.w3.org/2000/svg" id="New_Gradient_Swatch_29" gradientUnits="userSpaceOnUse" x1="113.994" x2="384.094" y1="391.05" y2="120.95"><stop offset=".015" stop-color="#f9cd55"></stop><stop offset="1" stop-color="#fed3b2"></stop></linearGradient><linearGradient xmlns="http://www.w3.org/2000/svg" id="New_Gradient_Swatch_27" gradientUnits="userSpaceOnUse" x1="333.516" x2="416.484" y1="294.881" y2="211.912"><stop offset=".015" stop-color="#c9e4dd"></stop><stop offset="1" stop-color="#e4f2ee"></stop></linearGradient><g xmlns="http://www.w3.org/2000/svg" id="_23-moon_phrase" data-name="23-moon phrase"><g id="gradient"><path d="m434.191 77.809a252 252 0 0 0 -356.382 356.382 252 252 0 0 0 356.382-356.382z" fill="url(#New_Gradient_Swatch_31)" data-original="url(#New_Gradient_Swatch_31)"></path><path d="m276 256a212.563 212.563 0 0 1 68.957-156.462 12 12 0 0 0 -2.819-19.631 194.132 194.132 0 0 0 -86.138-19.907c-108.075 0-196 87.925-196 196s87.925 196 196 196a194.132 194.132 0 0 0 86.138-19.907 12 12 0 0 0 2.819-19.631 212.563 212.563 0 0 1 -68.957-156.462z" fill="url(#New_Gradient_Swatch_29)" data-original="url(#New_Gradient_Swatch_29)"></path><path d="m433.662 230.939a12 12 0 0 0 -9.687-8.167l-26.406-3.835-11.808-23.928a12 12 0 0 0 -21.522 0l-11.808 23.928-26.406 3.835a12 12 0 0 0 -6.65 20.468l19.107 18.625-4.51 26.3a12 12 0 0 0 17.411 12.649l23.617-12.414 23.617 12.416a12 12 0 0 0 17.411-12.649l-4.51-26.3 19.107-18.625a12 12 0 0 0 3.037-12.303z" fill="url(#New_Gradient_Swatch_27)" data-original="url(#New_Gradient_Swatch_27)"></path></g></g></g></svg>