<svg xmlns="http://www.w3.org/2000/svg" version="1.1" xmlns:xlink="http://www.w3.org/1999/xlink" xmlns:svgjs="http://svgjs.com/svgjs" width="512" height="512" x="0" y="0" viewBox="0 0 512 512" style="enable-background:new 0 0 512 512" xml:space="preserve" class=""><g><linearGradient xmlns="http://www.w3.org/2000/svg" id="New_Gradient_Swatch_31" gradientUnits="userSpaceOnUse" x1="153.247" x2="270.751" y1="186.752" y2="69.248"><stop offset=".015" stop-color="#8c84bc"></stop><stop offset="1" stop-color="#dbdfec"></stop></linearGradient><linearGradient xmlns="http://www.w3.org/2000/svg" id="New_Gradient_Swatch_29" gradientUnits="userSpaceOnUse" x1="118.433" x2="320.805" y1="409.563" y2="207.191"><stop offset=".015" stop-color="#f9cd55"></stop><stop offset="1" stop-color="#fed3b2"></stop></linearGradient><linearGradient xmlns="http://www.w3.org/2000/svg" id="New_Gradient_Swatch_31-2" x1="353.247" x2="470.751" xmlns:xlink="http://www.w3.org/1999/xlink" xlink:href="#New_Gradient_Swatch_31" y1="274.752" y2="157.248"></linearGradient><linearGradient xmlns="http://www.w3.org/2000/svg" id="New_Gradient_Swatch_31-3" x1="41.247" x2="158.751" xmlns:xlink="http://www.w3.org/1999/xlink" xlink:href="#New_Gradient_Swatch_31" y1="426.752" y2="309.248"></linearGradient><g xmlns="http://www.w3.org/2000/svg" id="_21-moon" data-name="21-moon"><g id="gradient"><path d="m258.618 76.065a52.007 52.007 0 0 0 -101.477 1.076 52 52 0 0 0 10.859 102.859h88a52 52 0 0 0 2.618-103.935z" fill="url(#New_Gradient_Swatch_31)" data-original="url(#New_Gradient_Swatch_31)"></path><path d="m405.769 292.559a12 12 0 0 0 -12.485-.247 116.025 116.025 0 0 1 -159.194-157.556 12 12 0 0 0 -11.643-17.87 172.02 172.02 0 0 0 -154.447 171.114c0 94.841 77.159 172 172 172a172.01 172.01 0 0 0 171.274-156.232 12 12 0 0 0 -5.505-11.209z" fill="url(#New_Gradient_Swatch_29)" data-original="url(#New_Gradient_Swatch_29)"></path><path d="m458.618 164.065a52.007 52.007 0 0 0 -101.477 1.076 52 52 0 0 0 10.859 102.859h88a52 52 0 0 0 2.618-103.935z" fill="url(#New_Gradient_Swatch_31-2)" data-original="url(#New_Gradient_Swatch_31-2)"></path><path d="m146.618 316.065a52.007 52.007 0 0 0 -101.477 1.076 52 52 0 0 0 10.859 102.859h88a52 52 0 0 0 2.618-103.935z" fill="url(#New_Gradient_Swatch_31-3)" data-original="url(#New_Gradient_Swatch_31-3)"></path></g></g></g></svg>